<svg width="286" height="118" viewBox="0 0 286 118" fill="none" xmlns="http://www.w3.org/2000/svg">
<path d="M66.7178 59.3512C66.7178 59.3512 60.9424 53.1551 55.6748 51.0634C50.4064 48.9716 44.6124 53.237 50.1229 58.9319C55.6333 64.6268 55.7517 65.3354 55.7517 65.3354C55.7517 65.3354 54.1159 73.7042 61.7779 79.5059" stroke="#5D5FEF" stroke-width="2" stroke-miterlimit="10" stroke-linecap="round" stroke-linejoin="round"/>
<path d="M41.7869 55.1925C41.1528 56.12 40.7968 57.4632 40.9788 59.3939C41.4328 64.2085 45.2465 66.4186 47.2267 67.3318C50.1564 68.683 54.5814 67.7386 53.2601 62.4425" stroke="#5D5FEF" stroke-width="2" stroke-miterlimit="10" stroke-linecap="round" stroke-linejoin="round"/>
<path d="M41.6174 61.9093C41.6174 61.9093 35.9117 63.5525 38.4599 69.6079C39.5869 72.2862 42.5439 74.2017 45.8127 74.6432C49.7528 75.1755 52.474 70.8585 49.4251 67.8793" stroke="#5D5FEF" stroke-width="2" stroke-miterlimit="10" stroke-linecap="round" stroke-linejoin="round"/>
<path d="M85.3929 75.852C85.3929 75.852 80.1067 64.5912 69.4965 52.0985" stroke="#5D5FEF" stroke-width="2" stroke-miterlimit="10" stroke-linecap="round" stroke-linejoin="round"/>
<path d="M55.0433 96.5043C55.0433 96.5043 47.8388 79.619 43.5366 74.2285" stroke="#5D5FEF" stroke-width="2" stroke-miterlimit="10" stroke-linecap="round" stroke-linejoin="round"/>
<path d="M47.7885 54.3906L34.8748 55.7765C32.7542 56.0043 30.8526 54.4564 30.6274 52.3193L29.0217 37.1207" stroke="#5D5FEF" stroke-width="2" stroke-miterlimit="10" stroke-linecap="round" stroke-linejoin="round"/>
<path d="M68.895 21.0141C70.2472 20.8691 71.4599 21.8562 71.6038 23.2189L74.333 49.0464C74.477 50.4091 73.4975 51.6312 72.1453 51.7763L59.7977 53.1017" stroke="#5D5FEF" stroke-width="2" stroke-miterlimit="10" stroke-linecap="round" stroke-linejoin="round"/>
<path d="M65.0167 28.8017C66.4281 28.6504 67.45 27.3749 67.2999 25.9525L67.0623 23.7067C66.9183 22.344 67.6611 21.1477 68.7545 21.0302L29.4615 25.2466C27.4821 25.4594 26.0487 27.2476 26.2598 29.2423L26.8135 34.4868C26.9805 36.065 28.3848 37.2088 29.9517 37.0406L37.8539 36.1923C38.7283 36.0988 39.5144 35.6155 39.9984 34.8758L41.6191 32.3978C42.1031 31.6581 42.8892 31.1756 43.7636 31.0813L65.0167 28.8017Z" stroke="#5D5FEF" stroke-width="2" stroke-miterlimit="10" stroke-linecap="round" stroke-linejoin="round"/>
<path d="M72.4315 51.7461C72.412 51.7478 72.3935 51.7443 72.3741 51.7461C72.3546 51.7487 72.337 51.7558 72.3184 51.7585L72.4315 51.7461Z" stroke="#5D5FEF" stroke-width="2" stroke-miterlimit="10" stroke-linecap="round" stroke-linejoin="round"/>
<path d="M67.4244 26.143L69.8948 49.5226C70.0361 50.864 71.1402 51.844 72.374 51.7452C73.6009 51.5796 74.4744 50.3877 74.3331 49.0464L71.8627 25.6667L67.4244 26.143Z" stroke="#5D5FEF" stroke-width="2" stroke-miterlimit="10" stroke-linecap="round" stroke-linejoin="round"/>
<path d="M115.163 71H106.913V47.7273H115.232C117.572 47.7273 119.588 48.1932 121.277 49.125C122.966 50.0492 124.266 51.3788 125.175 53.1136C126.091 54.8485 126.55 56.9242 126.55 59.3409C126.55 61.7652 126.091 63.8485 125.175 65.5909C124.266 67.3333 122.959 68.6705 121.254 69.6023C119.557 70.5341 117.527 71 115.163 71ZM111.834 66.7841H114.959C116.413 66.7841 117.637 66.5265 118.629 66.0114C119.629 65.4886 120.379 64.6818 120.879 63.5909C121.387 62.4924 121.641 61.0758 121.641 59.3409C121.641 57.6212 121.387 56.2159 120.879 55.125C120.379 54.0341 119.633 53.2311 118.641 52.7159C117.648 52.2008 116.425 51.9432 114.97 51.9432H111.834V66.7841ZM137.99 71.3409C136.225 71.3409 134.698 70.9659 133.411 70.2159C132.13 69.4583 131.142 68.4053 130.445 67.0568C129.748 65.7008 129.399 64.1288 129.399 62.3409C129.399 60.5379 129.748 58.9621 130.445 57.6136C131.142 56.2576 132.13 55.2045 133.411 54.4545C134.698 53.697 136.225 53.3182 137.99 53.3182C139.755 53.3182 141.278 53.697 142.558 54.4545C143.846 55.2045 144.839 56.2576 145.536 57.6136C146.232 58.9621 146.581 60.5379 146.581 62.3409C146.581 64.1288 146.232 65.7008 145.536 67.0568C144.839 68.4053 143.846 69.4583 142.558 70.2159C141.278 70.9659 139.755 71.3409 137.99 71.3409ZM138.013 67.5909C138.816 67.5909 139.486 67.3636 140.024 66.9091C140.562 66.447 140.967 65.8182 141.24 65.0227C141.52 64.2273 141.661 63.322 141.661 62.3068C141.661 61.2917 141.52 60.3864 141.24 59.5909C140.967 58.7955 140.562 58.1667 140.024 57.7045C139.486 57.2424 138.816 57.0114 138.013 57.0114C137.202 57.0114 136.52 57.2424 135.967 57.7045C135.422 58.1667 135.009 58.7955 134.729 59.5909C134.456 60.3864 134.32 61.2917 134.32 62.3068C134.32 63.322 134.456 64.2273 134.729 65.0227C135.009 65.8182 135.422 66.447 135.967 66.9091C136.52 67.3636 137.202 67.5909 138.013 67.5909ZM157.615 71.3409C155.827 71.3409 154.289 70.9621 153.001 70.2045C151.721 69.4394 150.736 68.3788 150.047 67.0227C149.365 65.6667 149.024 64.1061 149.024 62.3409C149.024 60.553 149.369 58.9848 150.058 57.6364C150.755 56.2803 151.744 55.2235 153.024 54.4659C154.304 53.7008 155.827 53.3182 157.592 53.3182C159.115 53.3182 160.448 53.5947 161.592 54.1477C162.736 54.7008 163.642 55.4773 164.308 56.4773C164.975 57.4773 165.342 58.6515 165.411 60H160.842C160.714 59.1288 160.373 58.428 159.82 57.8977C159.274 57.3598 158.558 57.0909 157.672 57.0909C156.922 57.0909 156.267 57.2955 155.706 57.7045C155.153 58.1061 154.721 58.6932 154.411 59.4659C154.1 60.2386 153.945 61.1742 153.945 62.2727C153.945 63.3864 154.096 64.3333 154.399 65.1136C154.71 65.8939 155.145 66.4886 155.706 66.8977C156.267 67.3068 156.922 67.5114 157.672 67.5114C158.225 67.5114 158.721 67.3977 159.161 67.1705C159.607 66.9432 159.975 66.6136 160.263 66.1818C160.558 65.7424 160.751 65.2159 160.842 64.6023H165.411C165.335 65.9356 164.971 67.1098 164.32 68.125C163.676 69.1326 162.786 69.9205 161.649 70.4886C160.513 71.0568 159.168 71.3409 157.615 71.3409ZM171.339 71.2955C170.589 71.2955 169.946 71.0303 169.408 70.5C168.877 69.9621 168.612 69.3182 168.612 68.5682C168.612 67.8258 168.877 67.1894 169.408 66.6591C169.946 66.1288 170.589 65.8636 171.339 65.8636C172.067 65.8636 172.703 66.1288 173.249 66.6591C173.794 67.1894 174.067 67.8258 174.067 68.5682C174.067 69.0682 173.938 69.5265 173.68 69.9432C173.43 70.3523 173.101 70.6818 172.692 70.9318C172.283 71.1742 171.832 71.2955 171.339 71.2955ZM183.053 47.7273V71H178.132V47.7273H183.053ZM208.487 59.3636C208.487 61.9015 208.006 64.0606 207.044 65.8409C206.089 67.6212 204.786 68.9811 203.135 69.9205C201.491 70.8523 199.643 71.3182 197.589 71.3182C195.521 71.3182 193.665 70.8485 192.021 69.9091C190.377 68.9697 189.078 67.6098 188.124 65.8295C187.169 64.0492 186.692 61.8939 186.692 59.3636C186.692 56.8258 187.169 54.6667 188.124 52.8864C189.078 51.1061 190.377 49.75 192.021 48.8182C193.665 47.8788 195.521 47.4091 197.589 47.4091C199.643 47.4091 201.491 47.8788 203.135 48.8182C204.786 49.75 206.089 51.1061 207.044 52.8864C208.006 54.6667 208.487 56.8258 208.487 59.3636ZM203.499 59.3636C203.499 57.7197 203.252 56.3333 202.76 55.2045C202.275 54.0758 201.589 53.2197 200.703 52.6364C199.817 52.053 198.779 51.7614 197.589 51.7614C196.4 51.7614 195.362 52.053 194.476 52.6364C193.589 53.2197 192.9 54.0758 192.408 55.2045C191.923 56.3333 191.68 57.7197 191.68 59.3636C191.68 61.0076 191.923 62.3939 192.408 63.5227C192.9 64.6515 193.589 65.5076 194.476 66.0909C195.362 66.6742 196.4 66.9659 197.589 66.9659C198.779 66.9659 199.817 66.6742 200.703 66.0909C201.589 65.5076 202.275 64.6515 202.76 63.5227C203.252 62.3939 203.499 61.0076 203.499 59.3636Z" fill="white"/>
</svg>
