<svg width="65" height="78" viewBox="0 0 65 78" fill="none" xmlns="http://www.w3.org/2000/svg">
<path d="M44.7178 39.3511C44.7178 39.3511 38.9424 33.1551 33.6748 31.0633C28.4064 28.9716 22.6124 33.237 28.1229 38.9319C33.6333 44.6268 33.7517 45.3354 33.7517 45.3354C33.7517 45.3354 32.1159 53.7042 39.7779 59.5059" stroke="#5D5FEF" stroke-width="2" stroke-miterlimit="10" stroke-linecap="round" stroke-linejoin="round"/>
<path d="M19.7869 35.1925C19.1528 36.12 18.7968 37.4632 18.9788 39.3939C19.4328 44.2085 23.2465 46.4186 25.2267 47.3318C28.1564 48.683 32.5814 47.7386 31.2601 42.4425" stroke="#5D5FEF" stroke-width="2" stroke-miterlimit="10" stroke-linecap="round" stroke-linejoin="round"/>
<path d="M19.6174 41.9093C19.6174 41.9093 13.9117 43.5525 16.4599 49.6079C17.5869 52.2862 20.5439 54.2017 23.8127 54.6432C27.7528 55.1755 30.474 50.8585 27.4251 47.8793" stroke="#5D5FEF" stroke-width="2" stroke-miterlimit="10" stroke-linecap="round" stroke-linejoin="round"/>
<path d="M63.3929 55.852C63.3929 55.852 58.1067 44.5912 47.4965 32.0985" stroke="#5D5FEF" stroke-width="2" stroke-miterlimit="10" stroke-linecap="round" stroke-linejoin="round"/>
<path d="M33.0433 76.5043C33.0433 76.5043 25.8388 59.619 21.5366 54.2285" stroke="#5D5FEF" stroke-width="2" stroke-miterlimit="10" stroke-linecap="round" stroke-linejoin="round"/>
<path d="M25.7885 34.3906L12.8748 35.7765C10.7542 36.0043 8.8526 34.4564 8.62738 32.3193L7.02167 17.1207" stroke="#5D5FEF" stroke-width="2" stroke-miterlimit="10" stroke-linecap="round" stroke-linejoin="round"/>
<path d="M46.895 1.01415C48.2472 0.869062 49.4599 1.85619 49.6038 3.21895L52.333 29.0464C52.477 30.4091 51.4975 31.6312 50.1453 31.7763L37.7977 33.1017" stroke="#5D5FEF" stroke-width="2" stroke-miterlimit="10" stroke-linecap="round" stroke-linejoin="round"/>
<path d="M43.0167 8.80172C44.4281 8.65041 45.45 7.37488 45.2999 5.95248L45.0623 3.70674C44.9183 2.34398 45.6611 1.14768 46.7545 1.03018L7.46146 5.24663C5.48215 5.45936 4.04867 7.24759 4.25976 9.24233L4.81354 14.4868C4.98047 16.065 6.38481 17.2088 7.95165 17.0406L15.8539 16.1923C16.7283 16.0988 17.5144 15.6155 17.9984 14.8758L19.6191 12.3978C20.1031 11.6581 20.8892 11.1756 21.7636 11.0813L43.0167 8.80172Z" stroke="#5D5FEF" stroke-width="2" stroke-miterlimit="10" stroke-linecap="round" stroke-linejoin="round"/>
<path d="M50.4315 31.7461C50.412 31.7478 50.3935 31.7443 50.3741 31.7461C50.3546 31.7487 50.337 31.7558 50.3184 31.7585L50.4315 31.7461Z" stroke="#5D5FEF" stroke-width="2" stroke-miterlimit="10" stroke-linecap="round" stroke-linejoin="round"/>
<path d="M45.4244 6.14296L47.8948 29.5226C48.0361 30.864 49.1402 31.844 50.374 31.7452C51.6009 31.5796 52.4744 30.3877 52.3331 29.0464L49.8627 5.66675L45.4244 6.14296Z" stroke="#5D5FEF" stroke-width="2" stroke-miterlimit="10" stroke-linecap="round" stroke-linejoin="round"/>
</svg>
